<?xml version="1.0" encoding="UTF-8"?>
<svg width="271px" height="144px" viewBox="0 0 271 144" version="1.1" xmlns="http://www.w3.org/2000/svg" xmlns:xlink="http://www.w3.org/1999/xlink">
    <title>oqtepa_logo</title>
    <g id="Design" stroke="none" stroke-width="1" fill="none" fill-rule="evenodd">
        <g id="oqtepa_logo">
            <path d="M171.564,43.4741 C168.3078,39.7096 164.6494,36.5544 160.5892,34.0089 C156.5235,31.3529 151.5956,29.2995 145.8053,27.8487 C142.9647,27.1184 139.3181,26.7041 134.8652,26.6057 C122.4007,26.8029 111.6484,30.9135 102.6077,38.938 C108.863,38.938 111.9906,38.938 111.9906,38.938 C119.1225,34.501 126.7474,32.2864 134.8652,32.2944 C138.743,32.3332 142.2654,32.773 145.4327,33.6132 C149.2395,34.5556 153.0185,36.1306 156.7695,38.3386 C159.5952,40.0922 161.8915,41.8041 163.6583,43.4741 C168.9288,43.4741 171.564,43.4741 171.564,43.4741 Z" id="path4" fill="#D9D9DA"></path>
            <path d="M177.6685,38.9429 C174.894,35.6467 171.7595,32.693 168.2648,30.0815 C165.6305,28.1026 162.7105,26.3171 159.5048,24.7254 C155.4417,22.7148 151.0793,21.2113 146.4178,20.215 C143.176,19.5077 139.5896,19.1114 135.6591,19.0263 C130.9893,18.9023 125.9444,19.5189 120.5244,20.8759 C116.0192,22.0174 111.3964,23.94 106.656,26.6436 C103.509,28.4054 100.0863,30.9759 96.3881,34.3552 C93.7601,36.7806 91.1403,39.866 88.5288,43.611 C86.3574,43.3065 84.1639,43.2214 81.9478,43.356 C84.6539,38.9241 87.5889,35.1137 90.7527,31.925 C94.8472,27.864 98.7842,24.7112 102.5634,22.4662 C106.824,19.8898 110.979,17.9326 115.0286,16.5944 C119.3436,15.1872 123.2544,14.2757 126.7609,13.8602 C131.5716,13.2161 136.5324,13.1628 141.6431,13.7006 C145.6356,14.1223 149.6899,14.9881 153.8058,16.2976 C157.6184,17.5457 161.1376,19.0591 164.3638,20.8378 C167.5463,22.5937 170.4306,24.5005 173.0165,26.5583 C176.0524,28.9405 178.9178,31.6881 181.6127,34.8012 C183.1551,36.6492 184.2422,38.0282 184.874,38.938 C180.0703,38.941 177.6685,38.943 177.6685,38.943 L177.6685,38.9429 Z" id="path6" fill="#FDC900"></path>
            <path d="M191.7431,38.938 C197.6151,38.938 200.5512,38.938 200.5512,38.938 C198.3016,34.6612 195.0069,30.014 190.6672,24.996 C186.829,20.6436 182.1795,16.5896 176.7187,12.8344 C168.9339,7.7585 161.2804,4.301 153.7579,2.4616 C147.8936,0.8011 140.8085,0.0123 132.5029,0.0951 C126.0147,0.23 119.1891,1.3997 112.0255,3.6047 C106.7713,5.1465 100.8114,7.9728 94.1458,12.0836 C88.7465,15.495 83.4911,20.0567 78.38,25.7691 C72.2279,32.7567 67.4771,40.9254 64.1272,50.2753 C67.9077,47.4499 71.4465,45.574 74.7436,44.6475 C78.8945,36.2971 84.896,28.8956 92.7485,22.4429 C99.5446,17.1204 106.5655,13.3065 113.8114,11.0013 C121.4771,8.4719 129.4831,7.374 137.8294,7.7075 C144.5748,8.0293 150.9524,9.2448 156.9623,11.354 C165.3326,14.3965 172.4566,18.4643 178.3341,23.5577 C183.6024,28.0311 188.0722,33.1579 191.7431,38.938 L191.7431,38.938 Z" id="path8" fill="#E62B40"></path>
            <polygon id="path10" fill="#E62B40" points="131.1113 57.1069 131.1113 103.9332 117.6832 103.9332 117.6832 57.1069 105.0298 57.1069 105.0298 43.6785 143.9369 43.6785 143.9369 57.1069 131.1113 57.1069"></polygon>
            <path d="M232.7541,65.0259 C232.7541,67.9525 232.1947,70.7214 231.0756,73.3325 C229.9566,75.9435 228.4358,78.2246 226.5135,80.1756 C224.591,82.1267 222.3244,83.6619 219.7133,84.7807 C217.1023,85.8998 214.3333,86.4594 211.4067,86.4594 L198.5812,86.4594 L198.5812,103.9332 L185.1531,103.9332 L185.1531,43.6785 L211.4067,43.6785 C214.3333,43.6785 217.1023,44.2382 219.7133,45.3572 C222.3244,46.476 224.591,47.9968 226.5135,49.9193 C228.4358,51.8416 229.9566,54.1083 231.0756,56.7193 C232.1947,59.3303 232.7541,62.0993 232.7541,65.0259 L232.7541,65.0259 Z M198.5812,73.806 L211.4067,73.806 C212.6119,73.806 213.7454,73.5763 214.8068,73.1172 C215.8685,72.6581 216.8011,72.027 217.6043,71.2235 C218.4078,70.4203 219.039,69.4877 219.4981,68.426 C219.9571,67.3643 220.1868,66.2311 220.1868,65.0259 C220.1868,62.7878 219.4263,60.8511 217.9057,59.2156 C216.385,57.5801 214.563,56.619 212.4398,56.332 L198.5812,56.332 L198.5812,73.806 L198.5812,73.806 Z" id="path12" fill="#E62B40"></path>
            <path d="M245.9598,46.2862 L270.1737,98.2138 L257.8169,98.2138 L254.8169,90.7853 L237.1029,90.7853 L234.1029,98.2138 L221.7461,98.2138 L245.9598,46.2862 L245.9598,46.2862 Z M241.6028,79.6427 L250.2455,79.6427 L245.9598,68.8572 L241.6028,79.6427 Z" id="path14" fill="#E62B40"></path>
            <polygon id="path16" fill="#E62B40" points="156.6716 87.0712 177.814 87.0712 177.814 98.2138 145.529 98.2138 145.529 48.2147 177.814 48.2147 177.814 59.3575 156.6716 59.3575 156.6716 67.143 174.3141 67.143 174.3141 78.2856 156.6716 78.2856 156.6716 87.0712"></polygon>
            <path d="M0.8824,73.674 C0.8824,69.4355 1.6739,65.4654 3.2564,61.7636 C4.8392,58.0616 6.9852,54.8426 9.7214,52.1063 C12.4577,49.3703 15.6631,47.2106 19.3249,45.6279 C23,44.0453 26.9166,43.254 31.1012,43.254 L31.1012,55.8081 C28.6871,55.8081 26.3936,56.2776 24.2475,57.2164 C22.0879,58.1687 20.2237,59.4432 18.6409,61.066 C17.0583,62.6757 15.7839,64.5668 14.845,66.7262 C13.9062,68.8722 13.4367,71.1926 13.4367,73.674 C13.4367,76.1554 13.9062,78.4758 14.845,80.6217 C15.7839,82.7812 17.0583,84.659 18.6409,86.2416 C20.2237,87.8378 22.0879,89.0853 24.2475,90.0109 C26.3936,90.9228 28.6871,91.3788 31.1012,91.3788 L31.1012,103.9332 C26.9166,103.9332 23,103.1417 19.3249,101.5591 C15.6631,99.9763 12.4577,97.8171 9.7214,95.0806 C6.9852,92.3444 4.8392,89.139 3.2564,85.4637 C1.6739,81.7887 0.8824,77.8588 0.8824,73.674 L0.8824,73.674 Z M57.2377,58.055 C51.033,68.8957 50.7548,79.7042 56.4033,90.4806 C50.1757,99.2332 41.7417,103.7174 31.1012,103.9332 C31.1012,95.5636 31.1012,91.3788 31.1012,91.3788 C37.0967,91.247 41.8987,88.8656 45.5072,84.2348 C50.7186,76.4844 50.0009,68.0299 43.7631,61.066 C40.326,57.6547 36.1054,55.902 31.1012,55.8081 C31.1012,47.4388 31.1012,43.254 31.1012,43.254 C41.883,43.8655 51.8226,48.1965 57.2377,58.055 L57.2377,58.055 Z" id="path18" fill="#E62B40"></path>
            <path d="M83.9286,101.8898 C80.2144,101.8898 76.7383,101.1874 73.4764,99.7827 C70.2264,98.378 67.3813,96.4615 64.9528,94.0328 C62.5243,91.6043 60.6196,88.7592 59.2149,85.4973 C57.8101,82.2354 57.1078,78.7475 57.1078,75.0332 C57.1078,71.2715 57.8101,67.7477 59.2149,64.4621 C60.6196,61.1763 62.5243,58.3193 64.9528,55.8908 C67.3813,53.4623 70.2264,51.5456 73.4764,50.1409 C76.7383,48.7362 80.2144,48.0338 83.9286,48.0338 C87.6905,48.0338 91.2023,48.7362 94.4879,50.1409 C97.7617,51.5456 100.6188,53.4623 103.0473,55.8908 C105.4758,58.3193 107.3805,61.1763 108.7853,64.4739 C110.19,67.7596 110.8923,71.2834 110.8923,75.0451 C110.8923,77.6166 110.5472,80.0927 109.8568,82.4736 C109.1662,84.8545 108.19,87.0687 106.9283,89.1163 C105.6783,91.1638 104.1782,93.009 102.4403,94.628 C100.7022,96.2472 98.7616,97.628 96.6308,98.7709 L105.2021,107.2588 L97.2736,115.1753 L83.9286,101.8898 L83.9286,101.8898 Z M68.2504,75.0332 C68.2504,77.2357 68.667,79.2951 69.5004,81.1997 C70.3336,83.1164 71.4647,84.783 72.8694,86.1877 C74.2741,87.6044 75.9288,88.7116 77.8455,89.533 C79.7502,90.3425 81.7858,90.7472 83.9286,90.7472 C86.1191,90.7472 88.1905,90.3425 90.119,89.533 C92.0594,88.7116 93.7379,87.6044 95.1666,86.1877 C96.595,84.783 97.7261,83.1164 98.5356,81.1997 C99.3451,79.2951 99.7497,77.2357 99.7497,75.0332 C99.7497,72.8309 99.3451,70.7714 98.5356,68.8667 C97.7261,66.9502 96.595,65.2716 95.1666,63.843 C93.7379,62.4026 92.0594,61.2715 90.119,60.4264 C88.1905,59.593 86.1191,59.1764 83.9286,59.1764 C81.7858,59.1764 79.7502,59.593 77.8455,60.4264 C75.9288,61.2715 74.2741,62.4026 72.8694,63.843 C71.4647,65.2716 70.3336,66.9502 69.5004,68.8667 C68.667,70.7714 68.2504,72.8309 68.2504,75.0332 Z" id="path20" fill="#E62B40"></path>
            <polygon id="path22" fill="#181919" points="262.7883 123.5289 251.2549 123.5289 251.2549 132.616 245.197 132.616 245.197 105.4329 251.2549 105.4329 251.2549 117.4711 262.7883 117.4711 262.7883 105.4329 268.8463 105.4329 268.8463 132.616 262.7883 132.616"></polygon>
            <path d="M222.4412,129.7422 C222.4412,129.7683 222.6288,129.5288 223.0042,129.0238 C223.3796,128.519 223.8002,127.969 224.2663,127.3734 C224.81,126.6745 225.4312,125.8849 226.1303,125.0047 C226.8292,125.4964 227.5411,125.9368 228.2661,126.325 C228.8873,126.6615 229.5603,126.9594 230.2853,127.2182 C231.0103,127.4772 231.6964,127.6066 232.3436,127.6066 C232.7318,127.6066 233.1267,127.5482 233.528,127.4318 C233.9292,127.3152 234.2916,127.1535 234.6153,126.9461 C234.9388,126.7392 235.2044,126.4934 235.4113,126.2084 C235.6184,125.9237 235.7218,125.613 235.7218,125.2765 C235.7218,124.474 235.2691,123.7686 234.3628,123.1602 C233.4568,122.5517 232.3436,121.9887 231.0233,121.4708 C230.1948,121.1343 229.3339,120.7135 228.4407,120.2089 C227.5477,119.7039 226.7322,119.0958 225.9944,118.3838 C225.2566,117.6717 224.6545,116.8497 224.1886,115.9178 C223.7225,114.9859 223.4897,113.9375 223.4897,112.7724 C223.4897,111.659 223.6773,110.5977 224.0527,109.5879 C224.4281,108.5783 224.9913,107.6851 225.7419,106.9085 C226.4927,106.132 227.4248,105.5169 228.5379,105.064 C229.6511,104.6109 230.9586,104.3845 232.46,104.3845 C233.6248,104.3845 234.6865,104.5269 235.6442,104.8115 C236.6022,105.0964 237.4693,105.4329 238.246,105.8213 C239.0228,106.2096 239.6959,106.6173 240.2654,107.0446 C240.8351,107.4717 241.3139,107.8275 241.7023,108.1124 L238.1296,112.9665 C238.0519,112.9146 237.8254,112.7531 237.45,112.4812 C237.0746,112.2092 236.615,111.9246 236.0715,111.6267 C235.5279,111.329 234.9193,111.0572 234.2462,110.8112 C233.5734,110.5652 232.8742,110.4423 232.1493,110.4423 C231.4504,110.4423 230.842,110.6301 230.3242,111.0055 C229.8063,111.3809 229.5475,111.8275 229.5475,112.3451 C229.5475,113.0701 229.8904,113.7238 230.5767,114.3061 C231.2626,114.8887 232.3822,115.4905 233.9355,116.1119 C234.6865,116.4226 235.5211,116.811 236.4402,117.277 C237.3593,117.7429 238.2138,118.3254 239.0035,119.0243 C239.793,119.7235 240.4532,120.5583 240.9839,121.5292 C241.5145,122.5 241.7798,123.6455 241.7798,124.9658 C241.7798,125.9756 241.5729,126.9915 241.1586,128.0144 C240.7444,129.0368 240.1425,129.9689 239.3529,130.81 C238.5632,131.6515 237.5987,132.3376 236.4597,132.8683 C235.3205,133.3991 234.0393,133.6645 232.6152,133.6645 C231.3468,133.6645 230.1364,133.496 228.9845,133.1594 C227.8323,132.8229 226.7969,132.4282 225.8778,131.975 C224.9587,131.5221 224.1949,131.082 223.5865,130.6547 C222.9784,130.2279 222.5965,129.9235 222.4412,129.7422 L222.4412,129.7422 Z" id="path24" fill="#181919"></path>
            <polygon id="path26" fill="#181919" points="132.1945 132.8136 132.1945 105.4402 138.2947 105.4402 138.2947 126.7131 149.0096 126.7131 149.0096 132.8136 132.1945 132.8136"></polygon>
            <path d="M164.6517,104.3844 L177.9082,132.8136 L171.1431,132.8136 L169.5006,128.7465 L159.8027,128.7465 L158.1603,132.8136 L151.3951,132.8136 L164.6517,104.3844 Z M162.2663,122.6462 L166.9979,122.6462 L164.6517,116.7414 L162.2663,122.6462 Z" id="path28" fill="#181919"></path>
            <path d="M208.4776,104.3845 L221.642,132.616 L214.9239,132.616 L213.2929,128.5771 L203.6621,128.5771 L202.0311,132.616 L195.3132,132.616 L208.4776,104.3845 L208.4776,104.3845 Z M206.1088,122.5193 L210.8075,122.5193 L208.4776,116.6556 L206.1088,122.5193 L206.1088,122.5193 Z" id="path30" fill="#181919"></path>
            <polygon id="path32" fill="#181919" points="170.3584 109.0082 178.4804 109.0082 186.2738 126.8485 194.0672 109.0082 202.1892 109.0082 186.2738 143.1865 170.3584 109.0082"></polygon>
        </g>
    </g>
</svg>